<!-- Generated by IcoMoon.io -->
<svg version="1.1" xmlns="http://www.w3.org/2000/svg" width="1024" height="1024" viewBox="0 0 1024 1024">
<title></title>
<g id="icomoon-ignore">
</g>
<path fill="#1295db" d="M304.492 556.988c90.362 0 158.538 37.16 228.762 65.468-73.956 89.975-148.002 160.085-228.762 160.085-71.384 0-189.668-24.348-189.668-111.366 0.137-75.73 104.812-114.187 189.668-114.187v0 0zM1024 89.702v844.572c0 49.357-40.368 89.725-89.725 89.725h-844.595c-49.334 0-89.68-40.368-89.68-89.702v-844.595c0-49.334 40.346-89.702 89.68-89.702h844.572c49.38 0 89.748 40.368 89.748 89.702v0 0zM1023.59 686.535c-71.384-16.543-208.1-66.128-338.352-111.479 28.194-48.72 51.655-103.424 68.585-163.794l3.209-11.924c3.254-12.174 6.167-28.968 8.852-41.506h-203.776v-51.519h256.228v-51.018h-256.114v-103.174h-102.923v103.174h-255.909v51.018h255.909v51.519h-204.663v50.995h382.157c-8.943 46.262-26.146 92.774-48.56 133.166-17.795-5.894-179.928-53.567-285.673-53.567-84.582 0-224.939 64.74-224.939 182.773 0 116.372 80.759 181.862 224.939 181.862 138.422 0 240.321-69.2 322.719-191.852 156.877 68.312 302.581 143.679 398.313 186.846v-161.519z"></path>
</svg>
