<?xml version="1.0" encoding="utf-8"?>
<!-- Generator: Adobe Illustrator 21.0.0, SVG Export Plug-In . SVG Version: 6.00 Build 0)  -->
<svg version="1.1" id="图层_1" xmlns="http://www.w3.org/2000/svg" xmlns:xlink="http://www.w3.org/1999/xlink" x="0px" y="0px"
	 viewBox="0 0 40 40" style="enable-background:new 0 0 40 40;" xml:space="preserve">
<style type="text/css">
	.st0{fill:#F4AECB;}
	.st1{fill:#934167;}
	.st2{fill-rule:evenodd;clip-rule:evenodd;fill:#F4AECB;}
	.st3{fill-rule:evenodd;clip-rule:evenodd;fill:#934167;}
</style>
<g>
	<polygon class="st0" points="5.2,1 29.4,1 30.6,3.6 30.6,32.7 27.3,33.9 5.2,33.9 3.8,31.9 3.8,2 	"/>
	<g id="XMLID_6253_">
		<path id="XMLID_6259_" class="st1" d="M28.9,2.1c0.4,0,0.7,0.3,0.7,0.7v29.4c0,0.4-0.3,0.7-0.7,0.7H5.8c-0.4,0-0.7-0.3-0.7-0.7
			V2.8c0-0.4,0.3-0.7,0.7-0.7H28.9 M28.9,0H5.8C4.2,0,3,1.3,3,2.8v29.4c0,1.5,1.3,2.8,2.8,2.8h23.1c1.5,0,2.8-1.3,2.8-2.8V2.8
			C31.7,1.3,30.5,0,28.9,0L28.9,0z"/>
		<path id="XMLID_6258_" class="st1" d="M34.2,4.9h-0.9V7h0.9c0.4,0,0.7,0.3,0.7,0.7v29.4c0,0.4-0.3,0.7-0.7,0.7H11.1
			c-0.4,0-0.7-0.3-0.7-0.7v-0.9H8.3v0.9c0,1.5,1.3,2.8,2.8,2.8h23.1c1.5,0,2.8-1.3,2.8-2.8V7.8C37,6.2,35.8,4.9,34.2,4.9z"/>
		<rect id="XMLID_6257_" x="12.4" y="6.2" class="st1" width="13.8" height="2.5"/>
		<rect id="XMLID_6256_" x="8.7" y="12.8" class="st1" width="17.4" height="2.5"/>
		<rect id="XMLID_6255_" x="8.7" y="19.4" class="st1" width="17.4" height="2.5"/>
		<rect id="XMLID_6254_" x="8.7" y="26.1" class="st1" width="17.4" height="2.5"/>
	</g>
</g>
</svg>
