<?xml version="1.0" encoding="utf-8"?>
<!-- Generator: Adobe Illustrator 21.0.0, SVG Export Plug-In . SVG Version: 6.00 Build 0)  -->
<svg version="1.1" id="图层_1" xmlns="http://www.w3.org/2000/svg" xmlns:xlink="http://www.w3.org/1999/xlink" x="0px" y="0px"
	 viewBox="0 0 40 40" style="enable-background:new 0 0 40 40;" xml:space="preserve">
<style type="text/css">
	.st0{fill:#F4AECB;}
	.st1{fill:#934167;}
	.st2{fill-rule:evenodd;clip-rule:evenodd;fill:#F4AECB;}
	.st3{fill-rule:evenodd;clip-rule:evenodd;fill:#934167;}
</style>
<g>
	<g>
		<g>
			<polygon class="st0" points="22.2,4.8 8.7,11.3 8,13.9 22.2,20 37.2,13.2 37.2,11.3 			"/>
			<polygon class="st0" points="22.6,35.3 22.6,17.3 37.2,11.3 39.1,15.9 39.1,25.5 37.2,29.1 			"/>
			<polygon class="st0" points="27,31.3 21.5,35.3 15.8,32.4 16.8,27.4 15.8,23.2 10.3,20 8,20 6.7,14.5 8,13 24,20 			"/>
		</g>
	</g>
	<g>
		<path class="st1" d="M37.1,9.8L25.6,4.1c-1.5-0.8-4.1-0.8-5.6,0L8.6,9.8c-1.6,0.8-2.9,2.9-2.9,4.8v2.9c0,0.6,0.1,1.1,0.2,1.5
			C2.5,20.2,0,23.5,0,27.3c0,4.9,4,8.9,8.9,8.9c2.6,0,4.9-1.1,6.5-2.9c0.3,0.4,0.7,0.7,1.2,0.9l3.5,1.8c0.8,0.4,1.8,0.6,2.8,0.6
			c1,0,2-0.2,2.8-0.6l11.4-5.7c1.6-0.8,2.9-2.9,2.9-4.8V14.5C40,12.7,38.7,10.6,37.1,9.8z M9.7,12l11.4-5.7c0.8-0.4,2.5-0.4,3.4,0
			L35.9,12c0.2,0.1,0.4,0.3,0.6,0.4l-12,6c-0.9,0.4-2.5,0.4-3.4,0l-12-6C9.3,12.3,9.5,12.1,9.7,12z M8.9,33.6
			c-3.5,0-6.3-2.8-6.3-6.3s2.8-6.3,6.3-6.3s6.3,2.8,6.3,6.3c0,0.9-0.2,1.7-0.5,2.4c0,0,0,0.1,0,0.1C13.7,32.1,11.5,33.6,8.9,33.6z
			 M17.6,31.9c-0.3-0.1-0.5-0.4-0.6-0.7c-0.1-0.3-0.1-0.6,0.1-0.9c0.1-0.2,0.5-1.1,0.5-3c0-4.9-4-8.9-8.9-8.9l-0.5,0
			c-0.1-0.2-0.2-0.5-0.2-1v-2.7L20,20.7c0.5,0.2,1,0.4,1.6,0.5v12.6c-0.1,0-0.3-0.1-0.4-0.1L17.6,31.9z M35.9,27.9l-11.4,5.7
			c-0.1,0.1-0.3,0.1-0.4,0.1V21.2c0.6-0.1,1.1-0.2,1.6-0.5l11.9-5.9v10.6C37.5,26.3,36.8,27.5,35.9,27.9z"/>
		<path class="st1" d="M10.8,27.1c0.3,0,0.6-0.3,0.6-0.6c0-0.3-0.3-0.6-0.6-0.6h-1l1.2-1.2c0.2-0.2,0.2-0.6,0-0.9
			c-0.2-0.2-0.6-0.2-0.9,0l-1.4,1.4l-1.5-1.5c-0.2-0.2-0.6-0.2-0.9,0c-0.2,0.2-0.2,0.6,0,0.9l1.2,1.2h-1c-0.3,0-0.6,0.3-0.6,0.6
			c0,0.3,0.3,0.6,0.6,0.6h1.5v1H6.6c-0.3,0-0.6,0.3-0.6,0.6s0.3,0.6,0.6,0.6h1.5v1.3c0,0.3,0.3,0.6,0.6,0.6c0.3,0,0.6-0.3,0.6-0.6
			v-1.3h1.5c0.3,0,0.6-0.3,0.6-0.6c0-0.3-0.3-0.6-0.6-0.6H9.3v-1L10.8,27.1L10.8,27.1z"/>
	</g>
</g>
</svg>
