<?xml version="1.0" encoding="utf-8"?>
<!-- Generator: Adobe Illustrator 21.0.0, SVG Export Plug-In . SVG Version: 6.00 Build 0)  -->
<svg version="1.1" id="图层_1" xmlns="http://www.w3.org/2000/svg" xmlns:xlink="http://www.w3.org/1999/xlink" x="0px" y="0px"
	 viewBox="0 0 40 40" style="enable-background:new 0 0 40 40;" xml:space="preserve">
<style type="text/css">
	.st0{fill:#F4AECB;}
	.st1{fill:#934167;}
	.st2{fill-rule:evenodd;clip-rule:evenodd;fill:#F4AECB;}
	.st3{fill-rule:evenodd;clip-rule:evenodd;fill:#934167;}
</style>
<g>
	<path class="st0" d="M23.2,5.3v10.4c0,1.7-1.4,3.2-3.2,3.2c-1.7,0-3.2-1.4-3.2-3.2V5.3c-8,1.5-14.1,8.5-14.1,17
		c0,9.6,7.7,17.3,17.3,17.3c9.6,0,17.3-7.7,17.3-17.3C37.3,13.8,31.2,6.8,23.2,5.3z"/>
	<g>
		<path class="st1" d="M20,40C9.3,40,0.6,31.3,0.6,20.6c0-5.1,2-9.9,5.5-13.6c0.7-0.7,1.8-0.7,2.5,0c0.7,0.7,0.7,1.8,0,2.5
			c-2.9,3-4.5,6.9-4.5,11.1c0,8.7,7.1,15.8,15.8,15.8c8.7,0,15.8-7.1,15.8-15.8c0-4.2-1.6-8.2-4.6-11.2c-0.7-0.7-0.7-1.8,0-2.5
			c0.7-0.7,1.8-0.7,2.5,0c3.7,3.7,5.7,8.5,5.7,13.7C39.4,31.3,30.7,40,20,40z"/>
		<path class="st1" d="M20,17.7c-1,0-1.8-0.8-1.8-1.8V1.8C18.2,0.8,19,0,20,0s1.8,0.8,1.8,1.8v14.1C21.8,16.9,21,17.7,20,17.7z"/>
	</g>
</g>
</svg>
