<?xml version="1.0" encoding="utf-8"?>
<!-- Generator: Adobe Illustrator 21.0.0, SVG Export Plug-In . SVG Version: 6.00 Build 0)  -->
<svg version="1.1" id="图层_1" xmlns="http://www.w3.org/2000/svg" xmlns:xlink="http://www.w3.org/1999/xlink" x="0px" y="0px"
	 viewBox="0 0 40 40" style="enable-background:new 0 0 40 40;" xml:space="preserve">
<style type="text/css">
	.st0{fill:#F4AECB;}
	.st1{fill:#934167;}
	.st2{fill-rule:evenodd;clip-rule:evenodd;fill:#F4AECB;}
	.st3{fill-rule:evenodd;clip-rule:evenodd;fill:#934167;}
</style>
<g>
	<polygon class="st2" points="14.8,9.6 8.2,13.1 5,19.5 3.9,23.7 5.9,29.5 9.3,32.7 7.9,37.1 12.7,39.4 14.8,35.6 23.7,35.7 
		25.3,39.4 30.3,37.5 29.7,33.9 34.5,28.6 36.4,27.5 38.3,27 39,23.7 38.4,20 35.3,19 32.9,14.5 29.3,12.1 30,6.5 30.7,5.2 
		27.8,5.2 26.5,7.9 21.5,9.4 	"/>
	<g id="XMLID_1498_">
		<path id="XMLID_1500_" class="st3" d="M12,39.9c-1-0.4-2-0.8-3.1-1.2c-1.4-0.5-2-1.9-1.4-3.4c0.2-0.5,0.3-1.1,0.6-1.6
			c0.1-0.3,0.1-0.6-0.2-0.8c-1.4-1.2-2.6-2.6-3.4-4.2c-0.8-1.5-1.2-3.1-1.2-4.8c0-1.3,0.1-2.7,0.2-4c-0.6-0.4-1.3-0.8-1.9-1.3
			c-2-1.7-1.9-5.2,0.1-6.8c0.2-0.2,0.5-0.3,0.8-0.4c0.4-0.1,0.8,0.1,1,0.4c0.1,0.4,0.1,0.8-0.2,1.1c0,0-0.1,0.1-0.2,0.1
			c-1.3,0.6-1.6,3-0.2,4.2c0.4,0.3,0.8,0.6,1.3,0.9c0.1-0.3,0.2-0.5,0.3-0.7c1.2-2.9,3.3-4.8,5.8-6.2c3.5-2,7.3-2.5,11.2-2.1
			c0.8,0.1,1.5,0.2,2.3,0.3c0.1,0,0.3,0,0.3-0.2c1.3-2.5,3.4-4,6-4.7c0.4-0.1,0.8-0.1,1,0.2c0.2,0.3,0.2,0.7,0.1,1.1
			c-0.3,1.2-0.7,2.4-1,3.7c-0.1,0.5-0.1,1-0.2,1.5c0,0.3,0,0.4,0.3,0.5c1.8,0.8,3.3,2.2,4.3,4c0.5,0.9,0.9,1.9,1.1,2.9
			c0.1,0.6,0.1,0.6,0.7,0.6h1c1.2,0,2.1,0.8,2.3,2.1c0,0,0,0.1,0,0.2v4.5c0,0.1,0,0.1,0,0.2c-0.2,1.2-0.9,2-2.1,2.1
			c-0.3,0-0.6,0-0.9,0c-0.7-0.1-1.1,0.2-1.4,0.9c-0.9,2-2.4,3.6-4.3,4.8c-0.1,0.1-0.2,0.2-0.4,0.3c0.1,0.4,0.2,0.7,0.4,1.1
			c0.6,1.6,0,2.9-1.5,3.5c-0.9,0.4-1.9,0.8-2.9,1.2h-0.9c-1.1-0.3-1.7-1.2-2-2.4c0-0.2-0.1-0.4-0.2-0.6c0-0.3-0.2-0.5-0.6-0.4
			c-2.4,0.2-4.8,0.4-7.2-0.2c-0.1,0-0.3,0.1-0.3,0.2c-0.1,0.3-0.3,0.7-0.4,1.1c-0.3,1.1-0.9,1.9-2,2.2H12V39.9 M29.2,6.5
			c-0.3,0.2-0.5,0.3-0.8,0.4c-1.3,0.8-2.3,2-3,3.5c-0.3,0.6-0.6,0.7-1.2,0.6c-1.1-0.2-2.1-0.4-3.2-0.5c-4-0.3-7.7,0.4-11.1,2.7
			c-1.1,0.7-2.1,1.6-2.8,2.7c-1.2,1.9-1.8,4-1.9,6.3c-0.1,2,0.2,4,1.3,5.7c0.8,1.3,1.8,2.3,2.9,3.3c0.8,0.7,1,1.5,0.6,2.6
			c-0.2,0.6-0.4,1.2-0.6,1.8C9,36.5,9.1,36.7,9.7,37c0.8,0.3,1.6,0.6,2.3,0.9c0.6,0.2,0.9,0.1,1.1-0.5c0.2-0.7,0.5-1.3,0.8-2
			c0.3-0.7,0.9-1,1.7-0.9c0.8,0.1,1.6,0.3,2.4,0.3c1.6,0,3.2,0,4.8-0.1c1.3-0.1,1.9,0.2,2.3,1.5c0.1,0.4,0.3,0.9,0.5,1.4
			c0.1,0.4,0.4,0.5,0.8,0.4c0.9-0.3,1.8-0.7,2.7-1.1c0.3-0.1,0.5-0.4,0.3-0.8c-0.1-0.3-0.2-0.7-0.3-1c-0.4-1.3-0.2-2.1,0.9-2.8
			c0.4-0.3,0.9-0.6,1.3-0.9c1.1-1,2-2.2,2.6-3.6c0.4-0.9,1.1-1.4,2.2-1.4c0.4,0,0.8,0,1.2,0c0.5,0,0.7-0.2,0.7-0.7
			c0-1.3,0-2.7,0-4.1c0-0.6-0.2-0.7-0.7-0.7c-0.5,0-1,0-1.5,0c-0.9,0-1.5-0.6-1.7-1.6c-0.6-3.1-2.3-5.2-5.1-6.3
			c-0.6-0.2-0.8-0.5-0.8-1.2c0-1.2,0.1-2.5,0.5-3.7C28.9,7.3,29,7,29.2,6.5L29.2,6.5 M14.8,0c0.8,0.2,1.7,0.4,2.4,0.8
			c2.1,1.1,3.2,2.9,3.5,5.4c0,0.2,0,0.4,0,0.6c-0.5,0-1.1,0-1.6,0.1c-0.1-2-0.9-3.6-2.7-4.6c-1.2-0.6-2.4-0.6-3.6-0.2
			c-2.4,0.9-4,3.8-2.7,6.9c-0.5,0.2-1,0.4-1.5,0.7C8.1,8.9,7.9,7.9,7.9,6.9c0-3.5,2.4-6.3,5.7-6.8c0.1,0,0.2,0,0.3-0.1
			C14.2,0,14.5,0,14.8,0L14.8,0 M28.3,20.5c0-0.9,0.7-1.7,1.6-1.7c0.9,0,1.6,0.8,1.6,1.7c0,0.9-0.7,1.7-1.6,1.7
			C29,22.3,28.3,21.5,28.3,20.5L28.3,20.5 M28.3,20.5"/>
	</g>
</g>
</svg>
