<?xml version="1.0" encoding="utf-8"?>
<!-- Generator: Adobe Illustrator 21.0.0, SVG Export Plug-In . SVG Version: 6.00 Build 0)  -->
<svg version="1.1" id="图层_1" xmlns="http://www.w3.org/2000/svg" xmlns:xlink="http://www.w3.org/1999/xlink" x="0px" y="0px"
	 viewBox="0 0 40 40" style="enable-background:new 0 0 40 40;" xml:space="preserve">
<style type="text/css">
	.st0{fill:#F4AECB;}
	.st1{fill:#934167;}
	.st2{fill-rule:evenodd;clip-rule:evenodd;fill:#F4AECB;}
	.st3{fill-rule:evenodd;clip-rule:evenodd;fill:#934167;}
</style>
<g>
	<rect x="2.2" y="2.6" class="st0" width="15.3" height="15.3"/>
	<rect x="23.1" y="2.6" class="st0" width="15.3" height="15.3"/>
	<rect x="2.2" y="22.7" class="st0" width="15.3" height="15.3"/>
	<path class="st1" d="M37.2,2.8v13.8l-13.8,0V2.8H37.2 M16.6,2.8v13.8l-13.8,0V2.8H16.6 M16.6,23.4v13.8H2.8V23.4H16.6 M37.2,0.5
		H23.4c-1.3,0-2.3,1-2.3,2.3v13.8c0,1.3,1,2.3,2.3,2.3h13.8c1.3,0,2.3-1,2.3-2.3l0-13.8C39.5,1.5,38.5,0.5,37.2,0.5L37.2,0.5z
		 M16.6,0.5H2.8c-1.3,0-2.3,1-2.3,2.3v13.8c0,1.3,1,2.3,2.3,2.3h13.8c1.3,0,2.3-1,2.3-2.3V2.8C18.9,1.5,17.8,0.5,16.6,0.5L16.6,0.5z
		 M37.8,21.1c-1,0-1.7,0.8-1.7,1.7v8c0,1,0.8,1.7,1.7,1.7s1.7-0.8,1.7-1.7v-8C39.5,21.9,38.7,21.1,37.8,21.1L37.8,21.1z M30.9,21.1
		c-1,0-1.7,0.8-1.7,1.7v14.9c0,1,0.8,1.7,1.7,1.7c1,0,1.7-0.8,1.7-1.7V22.9C32.6,21.9,31.8,21.1,30.9,21.1L30.9,21.1z M24,21.1
		c-1,0-1.7,0.8-1.7,1.7v2.3c0,1,0.8,1.7,1.7,1.7c1,0,1.7-0.8,1.7-1.7l0-2.3C25.7,21.9,25,21.1,24,21.1L24,21.1z M16.6,21.1H2.8
		c-1.3,0-2.3,1-2.3,2.3v13.8c0,1.3,1,2.3,2.3,2.3h13.8c1.3,0,2.3-1,2.3-2.3l0-13.8C18.9,22.2,17.8,21.1,16.6,21.1L16.6,21.1z
		 M24,29.2c-1,0-1.7,0.8-1.7,1.7v6.9c0,1,0.8,1.7,1.7,1.7c1,0,1.7-0.8,1.7-1.7l0-6.9C25.7,29.9,25,29.2,24,29.2L24,29.2z M37.8,34.9
		c-1,0-1.7,0.8-1.7,1.7v1.1c0,1,0.8,1.7,1.7,1.7s1.7-0.8,1.7-1.7v-1.1C39.5,35.7,38.7,34.9,37.8,34.9L37.8,34.9z"/>
</g>
</svg>
