<?xml version="1.0" encoding="utf-8"?>
<!-- Generator: Adobe Illustrator 21.0.0, SVG Export Plug-In . SVG Version: 6.00 Build 0)  -->
<svg version="1.1" id="图层_1" xmlns="http://www.w3.org/2000/svg" xmlns:xlink="http://www.w3.org/1999/xlink" x="0px" y="0px"
	 viewBox="0 0 40 40" style="enable-background:new 0 0 40 40;" xml:space="preserve">
<style type="text/css">
	.st0{fill:#F4AECB;}
	.st1{fill:#934167;}
	.st2{fill-rule:evenodd;clip-rule:evenodd;fill:#F4AECB;}
	.st3{fill-rule:evenodd;clip-rule:evenodd;fill:#934167;}
</style>
<g>
	<path class="st0" d="M20.5,24.1c0.2,0,3.2,10.9,3.2,11v1.8c0,0.2-0.1,0.3-0.3,0.3H5.1l0,0c-2.4,0-4.3-1.9-4.3-4.3V5.8
		c0-2.4,1.9-4.3,4.3-4.3h23.7c2.4,0,4.3,1.9,4.3,4.3l-0.1,8.7c0,0.2-8.9-0.7-9.5-0.1"/>
	<path class="st0" d="M30.8,14.5c0,0-2.6-0.8-5.7,1.8c-0.9,0.7-1.6,1.7-1.8,2.2c-1,1.6-2.1,5.7,0.3,9.5l0.2,7.1l0,0l-5.5-15.8
		c0,0,7.3-9.1,12.5-8.2L30.8,14.5z"/>
	<path class="st1" d="M36.4,38.5c-0.1,0-0.1,0-0.2-0.1l-5-3.7l-5.1,3.7c0,0-0.1,0.1-0.2,0.1c0,0-0.1,0-0.1,0c-0.1,0-0.2-0.1-0.2-0.2
		v-7.5c0-0.1,0-0.2,0.1-0.2c0,0,0.1-0.1,0.2-0.1c0,0,0.1,0,0.1,0l1.8,0.6c0.1,0,0.2,0.1,0.2,0.3v2.8l3-2.2c0,0,0.1-0.1,0.2-0.1
		c0.1,0,0.1,0,0.2,0.1l2.9,2.2v-2.8c0-0.1,0.1-0.2,0.2-0.3l1.8-0.6c0,0,0.1,0,0.1,0c0.1,0,0.1,0,0.2,0.1c0.1,0.1,0.1,0.1,0.1,0.2
		v7.5c0,0.1-0.1,0.2-0.2,0.2C36.5,38.5,36.5,38.5,36.4,38.5z M5.1,37.2c-2.4,0-4.3-1.9-4.3-4.3V5.8c0-2.4,1.9-4.3,4.3-4.3h23.7
		c2.4,0,4.3,1.9,4.3,4.3v8.5c0,0.2-0.1,0.3-0.3,0.3H31c-0.2,0-0.3-0.1-0.3-0.3V5.8c0-1.1-0.9-2-2-2H5.1c-1.1,0-2,0.9-2,2v27.1
		c0,1.1,0.9,2,2,2h18.4c0.2,0,0.3,0.1,0.3,0.3v1.8c0,0.2-0.1,0.3-0.3,0.3L5.1,37.2L5.1,37.2z M31.2,31.3c-4.4,0-7.9-3.6-7.9-7.9
		s3.6-7.9,7.9-7.9c4.4,0,7.9,3.6,7.9,7.9C39.2,27.7,35.6,31.3,31.2,31.3z M31.2,17.8c-3.1,0-5.6,2.5-5.6,5.6c0,3.1,2.5,5.6,5.6,5.6
		s5.6-2.5,5.6-5.6C36.8,20.3,34.3,17.8,31.2,17.8z M7.4,29.7c-0.2,0-0.3-0.1-0.3-0.3v-1.9c0-0.2,0.1-0.3,0.3-0.3h13.9
		c0.2,0,0.3,0.1,0.3,0.3v1.9c0,0.2-0.1,0.3-0.3,0.3H7.4z M31.2,26.8c-1.9,0-3.4-1.5-3.4-3.4c0-1.9,1.5-3.4,3.4-3.4
		c1.9,0,3.4,1.5,3.4,3.4C34.7,25.2,33.1,26.8,31.2,26.8z M31.2,21.4c-1.1,0-2,0.9-2,2c0,1.1,0.9,2,2,2c1.1,0,2-0.9,2-2
		C33.2,22.3,32.3,21.4,31.2,21.4z M7.4,23.6c-0.2,0-0.3-0.1-0.3-0.3v-1.9c0-0.2,0.1-0.3,0.3-0.3h13.9c0.2,0,0.3,0.1,0.3,0.3v1.9
		c0,0.2-0.1,0.3-0.3,0.3H7.4z M7.4,17.6c-0.2,0-0.3-0.1-0.3-0.3v-1.9c0-0.2,0.1-0.3,0.3-0.3h13.9c0.2,0,0.3,0.1,0.3,0.3v1.9
		c0,0.2-0.1,0.3-0.3,0.3H7.4z M7.4,11.4c-0.2,0-0.3-0.1-0.3-0.3V9.2C7.1,9.1,7.2,9,7.4,9h19.1c0.2,0,0.3,0.1,0.3,0.3v1.9
		c0,0.2-0.1,0.3-0.3,0.3H7.4z"/>
</g>
</svg>
