<?xml version="1.0" encoding="utf-8"?>
<!-- Generated by IcoMoon.io -->
<!DOCTYPE svg PUBLIC "-//W3C//DTD SVG 1.1//EN" "http://www.w3.org/Graphics/SVG/1.1/DTD/svg11.dtd">
<svg version="1.1" xmlns="http://www.w3.org/2000/svg" xmlns:xlink="http://www.w3.org/1999/xlink" width="1024" height="1024" viewBox="0 0 1024 1024">
<g id="icomoon-ignore">
</g>
<path fill="#666" d="M877.133 268.954c20.634 0 39.45 0 59.699 0 0-41.523 0-80.768 0-120.806-3.507-0.486-6.733-1.638-9.779-1.254-20.096 2.483-35.405-1.613-47.616-20.966-10.291-16.333-29.875-20.070-49.382-19.942-44.262 0.333-88.525 0.102-132.762 0.102-7.117 0-14.208 0-21.837 0-0.614-7.398-1.229-12.595-1.459-17.792-1.869-44.339-24.371-72.141-66.97-83.968-63.462 0-126.925 0-190.387 0-55.782 19.686-62.822 39.347-69.197 101.76-34.586 0-69.453-0.026-104.294 0-19.098 0.026-38.835-2.662-57.242 1.101-15.77 3.226-34.406 10.394-43.776 22.195-11.648 14.618-22.784 19.405-39.501 17.434-4.506-0.512-9.139-0.077-15.462-0.077 0 40.192 0 79.309 0 120.832 18.611 0 37.376 0 59.469 0 0 9.907 0 17.485 0 25.037 0 208.077 0.922 416.154-0.666 624.205-0.384 50.509 16.077 85.427 64.486 102.861 200.96 0 401.894 0 602.854 0 48.435-17.434 64.87-52.326 64.486-102.861-1.587-207.386-0.666-414.822-0.666-622.234 0-7.757 0-15.539 0-25.626zM440.525 44.928c47.565-0.845 95.155-0.845 142.72 0 39.808 0.717 53.146 17.485 48.794 59.827-80.051 0-160.256 0-240.307 0-4.352-42.342 8.96-59.136 48.794-59.827zM836.941 290.918c0 210.842 0 421.683 0 632.525 0 42.496-13.312 55.936-55.526 55.962-179.763 0.051-359.552 0.051-539.315 0-41.318 0-55.219-13.696-55.219-54.272-0.026-211.507-0.026-422.989-0.026-634.496 0-6.477 0-12.979 0-20.736 216.986 0 432.128 0 650.112 0-0.026 8.038-0.026 14.515-0.026 21.018zM127.718 225.69c0-12.109 0-24.243 0-37.76 11.878-0.64 23.45-1.254 35.456-1.894 1.050-3.789 2.227-6.861 2.739-10.010 4.198-25.958 7.936-29.235 34.688-29.261 66.048-0.051 132.096-0.026 198.118-0.026 136.704 0 273.408 0 410.112 0 41.165 0 41.165 0 52.557 40.115 11.418 0 21.939 0 34.202 0 0 12.902 0 25.037 0 38.835-254.976 0-510.746 0-767.872 0z"></path>
<path fill="#666" d="M388.147 350.592c-40.269 0-78.976 0-118.451 0 0 182.374 0 363.622 0 545.894 39.962 0 78.643 0 118.451 0 0-183.296 0-364.544 0-545.894zM348.186 856.346c-13.286 0-24.986 0-37.862 0 0-155.11 0-309.402 0-465.126 12.442 0 24.55 0 37.862 0 0 154.829 0 309.146 0 465.126z"></path>
<path fill="#666" d="M571.52 350.976c-40.806 0-80 0-118.605 0 0 182.784 0 364.058 0 545.254 40.346 0 79.002 0 118.605 0 0-182.067 0-362.88 0-545.254zM530.483 855.629c-11.52 0-23.68 0-37.299 0 0-153.83 0-308.122 0-464.819 12.57 0 24.192 0 37.299 0 0 154.752 0 309.018 0 464.819z"></path>
<path fill="#666" d="M753.587 350.054c-39.936 0-78.106 0-118.272 0 0 183.066 0 364.365 0 545.843 40.474 0 79.667 0 118.272 0 0-182.81 0-364.032 0-545.843zM713.395 856.371c-13.363 0-25.062 0-37.862 0 0-155.11 0-309.427 0-465.152 12.365 0 24.474 0 37.862 0 0 154.88 0 309.146 0 465.152z"></path>
</svg>
