<?xml version="1.0" encoding="utf-8"?>
<!-- Generator: Adobe Illustrator 19.0.0, SVG Export Plug-In . SVG Version: 6.00 Build 0)  -->
<svg version="1.1" id="图层_1" xmlns="http://www.w3.org/2000/svg" xmlns:xlink="http://www.w3.org/1999/xlink" x="0px" y="0px"
	 viewBox="0 0 40 40" style="enable-background:new 0 0 40 40;" xml:space="preserve">
<style type="text/css">
	.st0{fill:#3EB1D8;}
</style>
<path id="XMLID_1526_" class="st0" d="M12,21.7"/>
<g id="XMLID_1_">
	<path id="XMLID_2_" class="st0" d="M29.4,21.6c-0.6-0.6-2.4-1.8-4.3-0.2c0,0-2.4,2.4-5.1,2.3c-2.8,0-4.9-2.2-4.9-2.2
		c-1.8-1.6-3.7-0.8-4.2-0.2c0,0-7.1,6.3-6.8,11.7c0.2,3.1,2.1,4.7,4.7,4.7l22.8,0c2.5-0.1,4.1-1.4,4.5-4.7
		C36.5,27.2,29.4,21.6,29.4,21.6z"/>
	<ellipse id="XMLID_4_" class="st0" cx="20" cy="10.7" rx="8.5" ry="8.6"/>
</g>
</svg>
