<?xml version="1.0" encoding="utf-8"?>
<!-- Generator: Adobe Illustrator 21.0.0, SVG Export Plug-In . SVG Version: 6.00 Build 0)  -->
<svg version="1.1" id="图层_1" xmlns="http://www.w3.org/2000/svg" xmlns:xlink="http://www.w3.org/1999/xlink" x="0px" y="0px"
	 viewBox="0 0 60 60" style="enable-background:new 0 0 60 60;" xml:space="preserve">
<style type="text/css">
	.st0{fill-rule:evenodd;clip-rule:evenodd;fill:#F9A346;}
	.st1{fill:#FFFFFF;}
</style>
<g>
	<path class="st0" d="M45.4,22.3c-2.4-1.9-5.3-3.1-8.4-3.6c-0.9-0.1-1.9-0.3-2.9-0.3c-0.9-0.1-1.7,0.6-1.7,1.4
		c-0.1,0.9,0.6,1.7,1.4,1.7c0.9,0.1,1.8,0.2,2.6,0.3c2.7,0.5,5.1,1.6,7,3c0.3,0.2,0.6,0.3,0.9,0.3c0.5,0,0.9-0.2,1.2-0.6
		C46.2,23.9,46.1,22.9,45.4,22.3z"/>
	<path class="st0" d="M19.6,21.4c-0.8,0-1.6,0.7-1.6,1.6c0,0.8,0.7,1.6,1.6,1.6s1.6-0.7,1.6-1.6C21.2,22.1,20.4,21.4,19.6,21.4z"/>
	<path class="st0" d="M50.6,0H9.4C4.2,0,0,4.2,0,9.4v41.1C0,55.8,4.2,60,9.4,60h41.1c5.2,0,9.4-4.2,9.4-9.4V9.4
		C60,4.2,55.8,0,50.6,0z M45,42c-1,0.5,0.2,3.7-1,4.8c-0.7,0.9-4.5,0.2-4.9,0.4c-1-0.3,0.7-2.1-0.5-1.9c-2.1,0.5-3.5,0.6-5.9,0.6
		c-0.8,0-1.7,0-2.5-0.1c-0.3,0,0,1.2-0.8,1.4c-1.4,0.1-2.8,0.1-3.4,0c-1.8,0.1-0.8-2.2-1.2-2.5c-0.3-0.1-0.5-0.2-0.8-0.3
		c-0.4,0.1,0.2,0.7-0.4,1.2c-1,0.4-4.8,0.3-5.2-0.5c-0.7-2.3,0.8-3,0.4-3.4c-1.6-1-2.9-2.2-3.9-3.5c-2.2-2.4-3.3-0.4-5.3-2.2
		c-1.2-1.6-0.3-5.8,0.1-6.3c0.8-1,1.2,0.3,2-1.4c0.3-3.8,2.3-7.5,5.4-10.1c-1.4-1.6-4.5-3.7-1.2-5.5c3.1-0.6,9.2,2.3,9.2,2.3
		s3.6-1,7.6-1c11.2,0,18.9,7.1,18.7,15.9C51.2,35.2,49.8,39,45,42z"/>
</g>
</svg>
