<?xml version="1.0" encoding="utf-8"?>
<!-- Generator: Adobe Illustrator 19.0.0, SVG Export Plug-In . SVG Version: 6.00 Build 0)  -->
<svg version="1.1" id="图层_1" xmlns="http://www.w3.org/2000/svg" xmlns:xlink="http://www.w3.org/1999/xlink" x="0px" y="0px"
	 viewBox="0 0 40 40" style="enable-background:new 0 0 40 40;" xml:space="preserve">
<style type="text/css">
	.st0{fill:#25AE5F;}
</style>
<path id="XMLID_73_" class="st0" d="M32,17.5h-1v-6c0-6.1-4.9-11-11-11S9,5.4,9,11.5v6H8c-2.2,0-4,1.8-4,4v14c0,2.2,1.8,4,4,4h24
	c2.2,0,4-1.8,4-4v-14C36,19.3,34.2,17.5,32,17.5z M21,28.4v3.1c0,0.6-0.4,1-1,1s-1-0.4-1-1v-3.1c-0.9-0.4-1.5-1.3-1.5-2.3
	c0-1.4,1.1-2.5,2.5-2.5s2.5,1.1,2.5,2.5C22.5,27.2,21.9,28,21,28.4z M29,17.5H11v-6c0-5,4-9,9-9s9,4,9,9V17.5z"/>
</svg>
