<!-- Generated by IcoMoon.io -->
<svg version="1.1" xmlns="http://www.w3.org/2000/svg" width="1024" height="1024" viewBox="0 0 1024 1024">
<title></title>
<g id="icomoon-ignore">
</g>
<path fill="#fc9abe" d="M863.573 0h-703.147c-88.747 0-160.427 71.68-160.427 160.427v701.44c0 90.453 71.68 162.133 160.427 162.133h701.44c88.747 0 160.427-71.68 160.427-160.427v-703.147c1.707-88.747-69.973-160.427-158.72-160.427z"></path>
<path fill="#fff" d="M628.053 332.8l54.613-61.44c-6.827-71.68-102.4-22.187-102.4-22.187-81.92-58.027-167.253 0-167.253 0-78.507-39.253-107.52 0-102.4 18.773s37.547 46.080 44.373 52.907c3.413 3.413 8.533 6.827 13.653 10.24-81.92 42.667-136.533 124.587-136.533 218.453 0 138.24 117.76 250.88 264.533 250.88 145.067 0 264.533-112.64 264.533-250.88 0-92.16-52.907-172.373-133.12-216.747zM549.547 515.413c13.653 0 20.48 0 30.72-1.707v22.187c-10.24-1.707-18.773-1.707-30.72-1.707h-32.427l-11.947 18.773v13.653h44.373c13.653 0 20.48 0 30.72-1.707v22.187c-10.24-1.707-18.773-1.707-30.72-1.707h-44.373v29.013c0 15.36 0 22.187 1.707 34.133h-27.307c1.707-10.24 1.707-20.48 1.707-34.133v-29.013h-44.373c-13.653 0-20.48 0-30.72 1.707v-23.893c10.24 1.707 17.067 1.707 30.72 1.707h44.373v-13.653l-11.947-17.067h-32.427c-13.653 0-20.48 0-30.72 1.707v-22.187c10.24 1.707 17.067 1.707 30.72 1.707h23.893l-47.787-71.68c-8.533-13.653-13.653-20.48-18.773-25.6h32.427c1.707 6.827 5.12 11.947 15.36 27.307l52.907 85.333 52.907-85.333c8.533-13.653 11.947-20.48 13.653-27.307h32.427c-3.413 5.12-10.24 13.653-18.773 25.6l-46.080 71.68h20.48z"></path>
</svg>
