<?xml version="1.0" encoding="utf-8"?>
<!-- Generator: Adobe Illustrator 19.0.0, SVG Export Plug-In . SVG Version: 6.00 Build 0)  -->
<svg version="1.1" id="图层_1" xmlns="http://www.w3.org/2000/svg" xmlns:xlink="http://www.w3.org/1999/xlink" x="0px" y="0px"
	 viewBox="0 0 40 40" style="enable-background:new 0 0 40 40;" xml:space="preserve">
<style type="text/css">
	.st0{fill:#FBD75C;}
	.st1{fill:#333333;}
</style>
<circle id="XMLID_2706_" class="st0" cx="20" cy="20" r="20"/>
<g id="XMLID_2784_">
	<path id="XMLID_2785_" class="st1" d="M18,19.6c0-1.2-0.1-2-0.4-2.3c-0.3-0.3-0.8-0.5-1.7-0.5v-1.5h0.6c1.1,0,2.1,0,3.1-0.1
		c1-0.1,2-0.2,2.9-0.4v13.1c0,1.3,0.1,2,0.3,2.3c0.2,0.3,0.7,0.4,1.3,0.5v1.5h-8.2v-1.5c0.9,0,1.4-0.2,1.7-0.5
		c0.3-0.3,0.4-1,0.4-2.3V19.6z M17.4,10.1c0-0.7,0.2-1.3,0.7-1.7C18.6,8,19.2,7.8,20,7.8s1.4,0.2,1.9,0.6c0.5,0.4,0.7,1,0.7,1.7
		c0,0.7-0.2,1.3-0.7,1.7c-0.5,0.4-1.1,0.6-1.9,0.6s-1.4-0.2-1.9-0.6C17.7,11.4,17.4,10.9,17.4,10.1z"/>
</g>
</svg>
