<?xml version="1.0" encoding="utf-8"?>
<!-- Generator: Adobe Illustrator 19.0.0, SVG Export Plug-In . SVG Version: 6.00 Build 0)  -->
<svg version="1.1" id="图层_1" xmlns="http://www.w3.org/2000/svg" xmlns:xlink="http://www.w3.org/1999/xlink" x="0px" y="0px"
	 viewBox="0 0 40 40" style="enable-background:new 0 0 40 40;" xml:space="preserve">
<style type="text/css">
	.st0{fill:#FBD75C;}
	.st1{fill:#333333;}
</style>
<circle id="XMLID_2846_" class="st0" cx="20" cy="20" r="20"/>
<g id="XMLID_2837_">
	<path id="XMLID_2866_" class="st1" d="M31.6,31.5H8.4C7.6,31.5,7,30.8,7,30V13.6l5-5h16l5,5V30C33,30.8,32.4,31.5,31.6,31.5z
		 M8.3,14.1V30c0,0.1,0.1,0.1,0.1,0.1h23.2c0.1,0,0.1-0.1,0.1-0.1V14.1l-4.3-4.3H12.5L8.3,14.1z"/>
	<path id="XMLID_2863_" class="st1" d="M23.4,28h-6.8v-4.6h-5.2l8.6-6.9l8.6,6.9h-5.2V28z M17.2,27.4h5.5v-4.6h4L20,17.3l-6.8,5.4h4
		V27.4z"/>
	<path id="XMLID_2860_" class="st1" d="M29.4,13.3H10.6l2.2-2.2h14.4L29.4,13.3z M12.2,12.6h15.7l-0.9-0.9H13.1L12.2,12.6z"/>
</g>
</svg>
