<?xml version="1.0" encoding="utf-8"?>
<!-- Generator: Adobe Illustrator 19.0.0, SVG Export Plug-In . SVG Version: 6.00 Build 0)  -->
<svg version="1.1" id="图层_1" xmlns="http://www.w3.org/2000/svg" xmlns:xlink="http://www.w3.org/1999/xlink" x="0px" y="0px"
	 viewBox="0 0 40 40" style="enable-background:new 0 0 40 40;" xml:space="preserve">
<style type="text/css">
	.st0{fill:#FBD75C;}
	.st1{fill:#333333;}
	.st2{fill-rule:evenodd;clip-rule:evenodd;fill:#333333;}
</style>
<g id="XMLID_1_">
	<circle id="XMLID_2851_" class="st0" cx="20" cy="20" r="20"/>
	<g id="XMLID_2836_">
		<g id="XMLID_2840_">
			<rect id="XMLID_2845_" x="30.6" y="28.3" class="st1" width="2.4" height="2.4"/>
			<rect id="XMLID_2844_" x="21.2" y="28.3" class="st1" width="2.4" height="2.4"/>
			<path id="XMLID_2841_" class="st1" d="M33,11.7V9.4H21.2v2.4h4.7v2.4h-2.4h-2.4v11.8h2.4v2.4h2.4v-2.4h2.4v2.4h2.4v-2.4H33v-9.5
				v-2.4h-4.7v-2.4H33z M30.6,16.5v9.5h-2.4v-7.1h-2.4v7.1h-2.4v-9.5H30.6z"/>
		</g>
		<polygon id="XMLID_2838_" class="st2" points="18.8,18.8 18.8,21.2 16.5,21.2 16.5,18.8 14.1,18.8 14.1,30.6 11.7,30.6 11.7,28.3 
			9.4,28.3 9.4,25.9 11.7,25.9 11.7,18.8 7,18.8 7,16.5 11.7,16.5 11.7,14.1 14.1,14.1 14.1,11.7 9.4,11.7 9.4,9.4 16.5,9.4 
			16.5,11.7 16.5,14.1 14.1,14.1 14.1,16.5 18.8,16.5 18.8,18.8 18.8,18.8 		"/>
	</g>
</g>
</svg>
