<?xml version="1.0" encoding="utf-8"?>
<!-- Generator: Adobe Illustrator 19.0.0, SVG Export Plug-In . SVG Version: 6.00 Build 0)  -->
<svg version="1.1" id="图层_1" xmlns="http://www.w3.org/2000/svg" xmlns:xlink="http://www.w3.org/1999/xlink" x="0px" y="0px"
	 viewBox="0 0 56 56" style="enable-background:new 0 0 56 56;" xml:space="preserve">
<style type="text/css">
	.st0{fill:#333;}
</style>
<g id="XMLID_30_">
	<path id="XMLID_41_" class="st0" d="M53.4,42.5L42.3,25.4c-0.2-0.3-0.5-0.5-0.8-0.5s-0.7,0.2-0.8,0.5l-3.5,5.4
		c-0.3,0.5-0.2,1.1,0.3,1.4c0.5,0.3,1.1,0.2,1.4-0.3l2.7-4.2L50.7,42H39.2L21.9,15.4c-0.4-0.6-1.3-0.6-1.7,0l-17.6,27
		c-0.2,0.3-0.2,0.7,0,1C2.7,43.8,3.1,44,3.4,44h49.1c0.4,0,0.7-0.2,0.9-0.5S53.6,42.8,53.4,42.5z M5.3,42L21,17.8L36.8,42H5.3z"/>
	<path id="XMLID_44_" class="st0" d="M40.3,21.5c2.6,0,4.8-2.1,4.8-4.8S42.9,12,40.3,12s-4.8,2.1-4.8,4.8S37.6,21.5,40.3,21.5z
		 M40.3,14c1.5,0,2.8,1.2,2.8,2.8s-1.2,2.8-2.8,2.8s-2.8-1.2-2.8-2.8S38.7,14,40.3,14z"/>
</g>
</svg>
