<!-- Generated by IcoMoon.io -->
<svg version="1.1" xmlns="http://www.w3.org/2000/svg" width="1024" height="1024" viewBox="0 0 1024 1024">
<title></title>
<g id="icomoon-ignore">
</g>
<path fill="#46ae35" d="M370.573 372.774c0 18.118-15.169 32.806-33.882 32.806s-33.882-14.688-33.882-32.806c0-18.118 15.169-32.806 33.882-32.806s33.882 14.688 33.882 32.806z"></path>
<path fill="#46ae35" d="M579.917 510.208c-15.795 0-28.646 12.416-28.646 27.686 0 15.334 12.851 27.776 28.646 27.776 15.808 0 28.646-12.442 28.646-27.776 0-15.27-12.838-27.686-28.646-27.686z"></path>
<path fill="#46ae35" d="M721.779 510.208c-15.795 0-28.621 12.416-28.621 27.686 0 15.334 12.826 27.776 28.621 27.776 15.821 0 28.621-12.442 28.621-27.776 0-15.27-12.8-27.686-28.621-27.686z"></path>
<path fill="#46ae35" d="M1024 161.19c0-89.024-72.166-161.19-161.178-161.19h-701.645c-89.011 0-161.178 72.166-161.178 161.19v701.619c0 89.024 72.166 161.19 161.178 161.19h701.645c89.011 0 161.178-72.166 161.178-161.19v-701.619zM420.646 644.083c-26.675 0-52.378-3.597-76.352-10.291-1.344-0.397-4.096-1.178-4.096-1.178l-87.232 44.429 23.309-73.024c0 0-1.459-0.922-2.202-1.395-57.613-36.864-94.746-94.989-94.746-160.333 0-111.462 108.045-201.83 241.331-201.83 120.73 0 220.762 74.112 238.528 170.957-3.366-0.192-6.72-0.243-10.138-0.243-121.37 0-219.853 82.483-219.853 184.269 0 16.678 2.739 32.806 7.693 48.154-5.376 0.282-10.79 0.486-16.243 0.486zM774.682 732.096c-0.627 0.397-1.869 1.19-1.869 1.19l19.712 61.722-73.69-37.581c0 0-2.317 0.691-3.494 0.998-20.224 5.632-41.92 8.73-64.474 8.73-112.589 0-203.891-76.339-203.891-170.509 0-94.157 91.302-170.496 203.891-170.496 112.576 0 203.853 76.339 203.853 170.496-0.013 55.232-31.398 104.307-80.038 135.45z"></path>
<path fill="#46ae35" d="M504.653 405.594c18.701 0 33.869-14.707 33.869-32.806 0-18.125-15.181-32.806-33.869-32.806-18.752 0-33.894 14.682-33.894 32.806-0.013 18.086 15.142 32.806 33.894 32.806z"></path>
</svg>
