<?xml version="1.0" encoding="utf-8"?>
<!-- Generator: Adobe Illustrator 21.0.0, SVG Export Plug-In . SVG Version: 6.00 Build 0)  -->
<svg version="1.1" id="图层_1" xmlns="http://www.w3.org/2000/svg" xmlns:xlink="http://www.w3.org/1999/xlink" x="0px" y="0px"
	 viewBox="0 0 1024 1024" style="enable-background:new 0 0 1024 1024;" xml:space="preserve">
<style type="text/css">
	.st0{fill:#1295DB;}
	.st1{fill:#009245;}
</style>
<g>
	<path class="st1" d="M284.9,288.5c-23.6,0-47.2,14.5-47.2,38.1c0,21.8,23.6,38.2,47.2,38.2c21.8,0,38.2-16.4,38.2-38.2
		C323.1,303.1,308.5,288.5,284.9,288.5z"/>
	<path class="st1" d="M501.1,363c23.6,0,38.1-14.5,38.1-38.2s-14.5-38.1-38.1-38.1c-23.6,0-47.2,16.3-45.4,38.1
		C455.7,346.7,477.5,363,501.1,363z"/>
	<path class="st1" d="M601,510.2c-14.5,0-30.9,16.4-30.9,30.9c0,16.3,16.4,30.9,30.9,30.9c23.6,0,38.1-14.5,38.1-30.9
		C639.2,526.5,624.6,510.2,601,510.2z"/>
	<path class="st1" d="M934.3,0H89.7C40.3,0,0,40.4,0,89.7v844.6c0,49.3,40.3,89.7,89.7,89.7h844.6c49.4,0,89.7-40.4,89.7-89.7V89.7
		l0,0C1024,40.4,983.6,0,934.3,0z M383,679.1c-38.1,0-69-7.3-107.2-14.5l-107.2,54.5l30.9-92.7C121.4,572,76,502.9,76,417.5
		c0-145.3,139.9-261.6,308.8-261.6c150.8,0,285.2,92.7,310.6,216.2c-9.1-1.8-18.2-1.8-29.1-1.8v0c-147.2,0-261.6,110.8-263.4,241.6
		c0,23.6,3.6,45.4,9.1,65.4C403,679.1,392.1,679.1,383,679.1z M839,789.9l25.4,78.1L779,820.8c-30.9,7.3-61.8,14.5-92.6,14.5
		c-145.3,0-261.6-99.9-261.6-223.5s114.4-223.4,261.6-223.4c138.1,0,261.6,99.9,261.6,223.4h0C948,681,902.6,742.7,839,789.9z"/>
	<path class="st1" d="M770,510.2c-16.3,0-30.9,16.4-30.9,30.9c0,16.3,16.3,30.9,30.9,30.9h0c23.6,0,40-14.5,38.1-30.9
		C808.1,526.5,793.6,510.2,770,510.2z"/>
</g>
</svg>
