<?xml version="1.0" encoding="utf-8"?>
<!-- Generator: Adobe Illustrator 19.0.0, SVG Export Plug-In . SVG Version: 6.00 Build 0)  -->
<svg version="1.1" id="图层_1" xmlns="http://www.w3.org/2000/svg" xmlns:xlink="http://www.w3.org/1999/xlink" x="0px" y="0px"
	 viewBox="0 0 71.7 54.7" style="enable-background:new 0 0 71.7 54.7;" xml:space="preserve">
<style type="text/css">
	.st0{fill:#25AE5F;}
</style>
<g id="XMLID_53_">
	<path id="XMLID_63_" class="st0" d="M33.4,31.2c0.6,0,1-0.4,1-1v-6.3c0-0.6-0.4-1-1-1s-1,0.4-1,1v5.3H27c-0.6,0-1,0.4-1,1
		s0.4,1,1,1H33.4z"/>
	<path id="XMLID_64_" class="st0" d="M52.7,11.7H35.8c-1.9,0-3.5,1.6-3.5,3.5v3.9l-8.5,6.2c-1,0.7-1.6,1.8-1.6,3v11.5
		c0,0.6,0.4,1,1,1s1-0.4,1-1V28.3c0-0.5,0.3-1,0.7-1.3l8.9-6.5c0.3-0.2,0.4-0.5,0.4-0.8v-4.4c0-0.8,0.7-1.5,1.5-1.5h16.9
		c0.8,0,1.5,0.7,1.5,1.5v24.6c0,0.6,0.4,1,1,1s1-0.4,1-1V15.2C56.2,13.3,54.6,11.7,52.7,11.7z"/>
	<path id="XMLID_67_" class="st0" d="M48.8,35.3c-2.6,0-4.7,1.8-5.1,4.3c-0.1,0-0.2-0.1-0.3-0.1h-8.7c-0.5-2.4-2.6-4.2-5.1-4.2
		c-2.9,0-5.2,2.3-5.2,5.2c0,2.9,2.3,5.2,5.2,5.2c2.5,0,4.7-1.8,5.1-4.2h8.7c0.1,0,0.2,0,0.3-0.1c0.4,2.4,2.6,4.3,5.1,4.3
		c2.9,0,5.2-2.3,5.2-5.2C54.1,37.6,51.7,35.3,48.8,35.3z M29.6,43.7c-1.8,0-3.2-1.4-3.2-3.2c0-1.8,1.4-3.2,3.2-3.2
		c1.8,0,3.2,1.4,3.2,3.2C32.8,42.3,31.4,43.7,29.6,43.7z M48.8,43.7c-1.8,0-3.2-1.4-3.2-3.2c0-1.8,1.4-3.2,3.2-3.2
		c1.8,0,3.2,1.4,3.2,3.2C52.1,42.3,50.6,43.7,48.8,43.7z"/>
</g>
</svg>
