<?xml version="1.0" encoding="utf-8"?>
<!-- Generated by IcoMoon.io -->
<!DOCTYPE svg PUBLIC "-//W3C//DTD SVG 1.1//EN" "http://www.w3.org/Graphics/SVG/1.1/DTD/svg11.dtd">
<svg version="1.1" xmlns="http://www.w3.org/2000/svg" xmlns:xlink="http://www.w3.org/1999/xlink" width="1024" height="1024" viewBox="0 0 1024 1024">
<g id="icomoon-ignore">
</g>
<path fill="#3fa2fe" d="M512 0c-282.816 0-512 229.28-512 512 0 282.816 229.184 512 512 512 282.72 0 512-229.184 512-512 0-282.72-229.28-512-512-512zM716.608 333.888c0 0-225.952 393.344-229.792 397.088-12.928 12.096-33.12 11.328-45.216-1.472l-146.368-135.008c-12.064-12.8-11.36-33.12 1.44-45.216 12.928-12.064 33.248-11.328 45.344 1.568l114.496 105.536 204.576-354.496c8.864-15.328 28.448-20.512 43.744-11.648 15.296 8.736 20.608 28.32 11.776 43.648z"></path>
</svg>
