<?xml version="1.0" encoding="utf-8"?>
<!-- Generator: Adobe Illustrator 19.0.0, SVG Export Plug-In . SVG Version: 6.00 Build 0)  -->
<svg version="1.1" id="图层_1" xmlns="http://www.w3.org/2000/svg" xmlns:xlink="http://www.w3.org/1999/xlink" x="0px" y="0px"
	 viewBox="0 0 56 56" style="enable-background:new 0 0 56 56;" xml:space="preserve">
<style type="text/css">
	.st0{fill:#333;}
</style>
<g id="XMLID_14_">
	<path id="XMLID_35_" class="st0" d="M46.9,12H25.5c-0.8,0-1.6,0.5-1.9,1.3l-1.4,4H9.1c-1.6,0-2.9,1.3-2.9,2.9v20.8
		c0,1.6,1.3,2.9,2.9,2.9h37.9c1.6,0,2.9-1.3,2.9-2.9V14.9C49.8,13.3,48.5,12,46.9,12z M47.8,41.1c0,0.5-0.4,0.9-0.9,0.9H9.1
		c-0.5,0-0.9-0.4-0.9-0.9V20.3c0-0.5,0.4-0.9,0.9-0.9h14.6l1.9-5.4h21.4c0.5,0,0.9,0.4,0.9,0.9V41.1z"/>
	<path id="XMLID_39_" class="st0" d="M11.4,14h7.2c0.6,0,1-0.4,1-1s-0.4-1-1-1h-7.2c-0.6,0-1,0.4-1,1S10.9,14,11.4,14z"/>
	<path id="XMLID_42_" class="st0" d="M34.6,18.2c-5.8,0-10.5,4.7-10.5,10.5c0,5.8,4.7,10.5,10.5,10.5s10.5-4.7,10.5-10.5
		C45.1,22.9,40.4,18.2,34.6,18.2z M34.6,37.2c-4.7,0-8.5-3.8-8.5-8.5s3.8-8.5,8.5-8.5s8.5,3.8,8.5,8.5S39.3,37.2,34.6,37.2z"/>
</g>
</svg>
