<?xml version="1.0" encoding="utf-8"?>
<!-- Generator: Adobe Illustrator 19.0.0, SVG Export Plug-In . SVG Version: 6.00 Build 0)  -->
<svg version="1.1" id="图层_1" xmlns="http://www.w3.org/2000/svg" xmlns:xlink="http://www.w3.org/1999/xlink" x="0px" y="0px"
	 viewBox="0 0 60 40" style="enable-background:new 0 0 60 40;" xml:space="preserve">
<style type="text/css">
	.st0{fill-rule:evenodd;clip-rule:evenodd;fill:#333;}
</style>
<g id="XMLID_1_">
	<path id="XMLID_7_" class="st0" d="M52.8,10.7c-0.7-0.5-1.5-0.8-2.3-0.6c-0.1,0-0.1,0-0.2,0.1L40.7,14v-3c0-2.8-2.2-5-5-5h-26
		c-2.8,0-5,2.2-5,5v20c0,2.8,2.2,5,5,5h3.9c0.6,0,1-0.4,1-1s-0.4-1-1-1H9.7c-1.7,0-3-1.3-3-3V11c0-1.7,1.3-3,3-3h26c1.7,0,3,1.3,3,3
		v20c0,1.7-1.3,3-3,3H21.2c-0.6,0-1,0.4-1,1s0.4,1,1,1h14.5c2.8,0,5-2.2,5-5v-3l9.5,3.9c0.1,0,0.1,0,0.2,0.1c0.2,0,0.3,0,0.5,0
		c0.7,0,1.3-0.2,1.9-0.7c0.7-0.5,1-1.4,1-2.2V12.9C53.8,12,53.4,11.2,52.8,10.7z M51.8,29.1c0,0.4-0.2,0.6-0.3,0.7
		c-0.1,0.1-0.3,0.2-0.6,0.2l-10.1-4.1v-9.7L50.8,12c0.3,0,0.5,0.1,0.6,0.2c0.1,0.1,0.3,0.3,0.3,0.7V29.1z"/>
	<circle id="XMLID_8_" class="st0" cx="12.7" cy="13.1" r="2"/>
</g>
</svg>
