<?xml version="1.0" encoding="utf-8"?>
<!-- Generator: Adobe Illustrator 16.0.0, SVG Export Plug-In . SVG Version: 6.00 Build 0)  -->
<!DOCTYPE svg PUBLIC "-//W3C//DTD SVG 1.1//EN" "http://www.w3.org/Graphics/SVG/1.1/DTD/svg11.dtd">
<svg version="1.1" id="图层_1" xmlns="http://www.w3.org/2000/svg" xmlns:xlink="http://www.w3.org/1999/xlink" x="0px" y="0px"
	 width="50px" height="50px" viewBox="0 0 50 50" enable-background="new 0 0 50 50" xml:space="preserve">
<g>
	<path id="XMLID_3711_" fill-rule="evenodd" clip-rule="evenodd" fill="#79852E" d="M1.545,0h20.027
		c2.036,0.2,1.545,3.737,1.545,6.035v10.94c0,2.378,0.454,5.294-1.142,5.969c-1.04,0.439-3.83,0.133-5.175,0.133H6.183
		c-2.454,0-5.807,0.578-6.183-1.524V1.525C0.274,0.78,0.757,0.239,1.545,0L1.545,0 M4.301,4.51v14.256H18.75V4.311H4.368
		C4.29,4.322,4.295,4.415,4.301,4.51L4.301,4.51 M28.427,0h20.027C49.271,0.3,49.832,0.851,50,1.792v19.495
		c-0.184,0.81-0.612,1.501-1.411,1.723c-1.307,0.364-3.478,0.067-5.04,0.067H33.266c-1.551,0-3.849,0.322-5.107-0.067
		c-1.777-0.547-1.277-3.97-1.277-6.366V6.433C26.881,3.668,26.267,0.386,28.427,0L28.427,0 M31.182,4.51v14.256h14.45V4.311H31.249
		C31.171,4.322,31.176,4.415,31.182,4.51L31.182,4.51 M10.887,8.687c2.012-0.374,3.595,0.967,3.629,2.786
		c0.045,2.397-2.437,3.714-4.368,2.718C7.938,13.051,8.083,9.209,10.887,8.687L10.887,8.687 M37.769,8.687
		c4.74-0.873,4.649,6.533,0,5.769C34.81,13.971,34.715,9.25,37.769,8.687L37.769,8.687 M21.438,50H1.612
		C0.789,49.749,0.233,49.236,0,48.408v-19.96c0.195-0.584,0.647-1.267,1.344-1.459c1.316-0.364,3.465-0.065,5.041-0.065h10.281
		c1.52,0,3.731-0.336,5.107,0.065c1.862,0.541,1.344,3.91,1.344,6.3v10.544C23.117,46.411,23.681,49.769,21.438,50L21.438,50
		 M4.301,31.432v14.257H18.75V31.232H4.368C4.29,31.244,4.295,31.337,4.301,31.432L4.301,31.432 M50,28.714v5.569
		c-0.157,1.879-0.022,4.046-0.067,6.034H35.618v-3.249c-1.345-0.154-2.979-0.021-4.437-0.065C31.025,41.202,31.16,45.688,31.115,50
		h-2.621c-2.254-0.447-1.613-3.783-1.613-6.433V33.289c0-1.546-0.316-3.862,0.067-5.107c0.458-1.483,2.446-1.258,4.436-1.258h9.745
		v8.818h4.503c0.044-2.918-0.09-6.013,0.067-8.818C47.865,26.796,49.873,26.827,50,28.714L50,28.714 M11.223,35.544
		c2.148-0.235,3.925,1.802,3.092,4.045c-1.156,3.107-6.68,1.939-5.646-1.99C8.955,36.514,9.781,35.7,11.223,35.544L11.223,35.544
		 M40.457,50h-4.839c0.044-1.704-0.09-3.581,0.067-5.173h4.771V50L40.457,50 M50,44.827v3.383c-0.187,0.942-0.746,1.519-1.613,1.79
		h-3.428c0.045-1.704-0.09-3.581,0.067-5.173C46.685,44.827,48.342,44.827,50,44.827L50,44.827 M50,44.827"/>
</g>
</svg>
