<?xml version="1.0" encoding="utf-8"?>
<!-- Generator: Adobe Illustrator 21.0.0, SVG Export Plug-In . SVG Version: 6.00 Build 0)  -->
<svg version="1.1" id="图层_1" xmlns="http://www.w3.org/2000/svg" xmlns:xlink="http://www.w3.org/1999/xlink" x="0px" y="0px"
	 viewBox="0 0 40 40" style="enable-background:new 0 0 40 40;" xml:space="preserve">
<style type="text/css">
	.st0{fill:#FF9F2C;}
	.st1{fill:#F75965;}
	.st2{fill:#FFFFFF;}
	.st3{fill:#3BB7E2;}
</style>
<g>
	<path class="st1" d="M24.2,13.7c-1.3-0.6-2.6-1.1-3.9-1.9h-0.2c-0.9,0.6-1.9,0.9-2.8,1.5c-1.3,0.6-2.6,0.9-3.9,1.1
		c-0.6,0.2-0.9,0.2-1.3,0.2v7.6c0,0.4,0,0.6,0.2,0.9c0,0.7,0.4,1.5,0.9,2.2c0.9,1.5,2.2,2.6,3.7,3.5l2.2,1.1
		c0.4,0.2,0.9,0.2,1.3,0.2l1.7-0.6c1.1-0.6,2.2-1.3,3.2-2.2c0.9-0.7,1.7-1.7,2.2-2.8c0.4-0.7,0.6-1.5,0.6-2.4v-7.6
		c-0.2,0-0.6,0-0.9-0.2C26,14.3,25.1,14.1,24.2,13.7z M23.6,21.3c0.4,0,0.7,0.4,0.4,0.7c0,0.4-0.4,0.7-0.7,0.7h-2.6v2.6
		c0,0.6-0.4,0.9-0.7,0.9c-0.4,0-0.7-0.4-0.7-0.7V23h-2.6c-0.4,0-0.7-0.4-0.7-0.7c0-0.4,0.2-0.6,0.2-0.7c0.2-0.2,0.2-0.2,0.4-0.2h3
		v-1.1h-2.8c-0.4,0-0.7-0.2-0.7-0.9c0-0.4,0.4-0.7,0.7-0.7h1.7l-1.7-2c-0.2-0.4-0.2-0.9,0-1.1c0.2,0,0.4-0.2,0.6-0.2
		c0.4,0,0.4,0.2,0.6,0.2l2.4,2.6l2.2-2.6c0.2,0,0.4-0.2,0.6-0.2c0.4,0,0.4,0.2,0.6,0.2c0.2,0.2,0.2,0.2,0.2,0.4
		c0.2,0.4,0.2,0.6,0,0.7l-0.2,0.2l-1.7,1.9h1.5c0.2,0,0.4,0,0.6,0.2c0.2,0,0.4,0.4,0.4,0.6s0,0.4-0.2,0.6c-0.2,0.2-0.4,0.4-0.6,0.4
		h-2.6v1.1H23.6z"/>
	<path class="st1" d="M20,0C9,0,0,9,0,20c0,11,9,20,20,20c11,0,20-9,20-20C40,9,31,0,20,0z M29.6,22.8c-0.2,0.7-0.2,1.5-0.6,2.2
		c-0.6,0.9-1.1,1.9-1.9,2.6c-1.3,1.3-2.8,2.4-4.6,3.3c-0.4,0.2-0.9,0.4-1.7,0.4c-0.2,0-0.4,0-0.6,0.2h-0.7c-0.7-0.2-1.5-0.4-2.2-0.7
		c-1.3-0.6-2.6-1.5-3.5-2.4c-0.9-0.9-1.9-1.9-2.6-3.2c-0.4-1.1-0.6-2-0.6-3.2v-8.9c0.9,0,1.9,0,2.6-0.2c0.7-0.2,1.7-0.4,2.4-0.6
		c1.1-0.4,2.2-0.9,3.2-1.5c0.6-0.2,0.9-0.6,1.3-0.9h0.2c0.7,0.6,1.7,0.9,2.4,1.5c1.1,0.6,2.2,0.9,3.5,1.3c0.6,0.2,1.3,0.2,1.9,0.4
		h1.5V22.8z"/>
</g>
</svg>
