<?xml version="1.0" encoding="utf-8"?>
<!-- Generator: Adobe Illustrator 21.0.0, SVG Export Plug-In . SVG Version: 6.00 Build 0)  -->
<svg version="1.1" id="图层_1" xmlns="http://www.w3.org/2000/svg" xmlns:xlink="http://www.w3.org/1999/xlink" x="0px" y="0px"
	 viewBox="0 0 40 40" style="enable-background:new 0 0 40 40;" xml:space="preserve">
<style type="text/css">
	.st0{fill:#FF9F2C;}
	.st1{fill:#F75965;}
	.st2{fill:#FFFFFF;}
	.st3{fill:#3BB7E2;}
</style>
<g>
	<path class="st1" d="M20,0C9,0,0,9,0,20c0,11,9,20,20,20c11,0,20-9,20-20C40,9,31,0,20,0z M28.3,28.4c-2.2,2.2-5.1,3.4-8.3,3.4
		c-3.1,0-6.1-1.2-8.3-3.4c-2.2-2.2-3.4-5.1-3.4-8.3c0-3.1,1.2-6.1,3.4-8.3c2.2-2.2,5.1-3.4,8.3-3.4c3.1,0,6.1,1.2,8.3,3.4
		c2.2,2.2,3.4,5.1,3.4,8.3C31.7,23.2,30.5,26.1,28.3,28.4z"/>
	<path class="st1" d="M20,10c-5.5,0-10,4.5-10,10c0,5.5,4.5,10,10,10c5.5,0,10-4.5,10-10C30,14.5,25.5,10,20,10z M26,16.1h-7
		l-1.2,3.5h4.4c0.3,0,0.4-0.3,0.4-0.5L22,17.2H25l0.6,1.7c0.3,0.8-0.3,1.6-1.1,1.6h-0.5v4.4h2v1h-5v-5.3h-1.7l-1.9,5.3h-3l1.9-5.3
		h-1.8l1.6-4.5h-2v-1h4.5v-1.2h3v1.2H26V16.1z"/>
</g>
</svg>
