<?xml version="1.0" encoding="utf-8"?>
<!-- Generator: Adobe Illustrator 21.0.0, SVG Export Plug-In . SVG Version: 6.00 Build 0)  -->
<svg version="1.1" id="图层_1" xmlns="http://www.w3.org/2000/svg" xmlns:xlink="http://www.w3.org/1999/xlink" x="0px" y="0px"
	 viewBox="0 0 40 40" style="enable-background:new 0 0 40 40;" xml:space="preserve">
<style type="text/css">
	.st0{fill:#FF9F2C;}
	.st1{fill:#F75965;}
	.st2{fill:#FFFFFF;}
	.st3{fill:#3BB7E2;}
</style>
<g>
	<path class="st3" d="M30.8,18.4h-9.2c-0.2,0-0.4,0.2-0.4,0.4v2.2c0,0.2,0.2,0.4,0.4,0.4h9.2c0.2,0,0.4-0.2,0.4-0.4v-2.2
		C31.3,18.6,31.1,18.4,30.8,18.4z M29.7,20.6c-0.2,0.1-0.5,0.1-0.7,0c-0.2-0.1-0.3-0.3-0.3-0.6c0-0.2,0.1-0.5,0.3-0.6
		c0.2-0.1,0.5-0.1,0.7,0c0.2,0.1,0.3,0.3,0.3,0.6C30.1,20.2,29.9,20.5,29.7,20.6z"/>
	<path class="st3" d="M20,0C9,0,0,9,0,20c0,11,9,20,20,20c11,0,20-9,20-20C40,9,31,0,20,0z M30.1,26.3c0,1.6-1.3,2.9-2.9,2.9H13.8
		c-1.6,0-2.9-1.3-2.9-2.9V13.7c0-1.6,1.3-2.9,2.9-2.9h13.3c1.6,0,2.9,1.3,2.9,2.9v2.2h0c0,0,0,0,0,0c0,0.4-0.3,0.7-0.7,0.7
		c-0.4,0-0.7-0.3-0.7-0.7c0,0,0,0,0,0h0v-2.2c0-0.9-0.7-1.6-1.6-1.6H13.8c-0.9,0-1.6,0.7-1.6,1.6v12.7c0,0.9,0.7,1.6,1.6,1.6h13.3
		c0.9,0,1.6-0.7,1.6-1.6v-2.2c0-0.4,0.3-0.7,0.7-0.7c0.4,0,0.7,0.3,0.7,0.7V26.3z M32.6,21.1c0,1-0.8,1.8-1.8,1.8h-9.2
		c-1,0-1.8-0.8-1.8-1.8v-2.2c0-1,0.8-1.8,1.8-1.8h9.2c1,0,1.8,0.8,1.8,1.8V21.1z"/>
</g>
</svg>
