<?xml version="1.0" encoding="utf-8"?>
<!-- Generator: Adobe Illustrator 21.0.0, SVG Export Plug-In . SVG Version: 6.00 Build 0)  -->
<svg version="1.1" id="图层_1" xmlns="http://www.w3.org/2000/svg" xmlns:xlink="http://www.w3.org/1999/xlink" x="0px" y="0px"
	 viewBox="0 0 40 40" style="enable-background:new 0 0 40 40;" xml:space="preserve">
<style type="text/css">
	.st0{fill:#FF9F2C;}
	.st1{fill:#F75965;}
	.st2{fill:#FFFFFF;}
	.st3{fill:#3BB7E2;}
</style>
<g>
	<path class="st0" d="M20,8.9c-6.1,0-11.1,5-11.1,11.1c0,6.1,5,11.1,11.1,11.1c6.1,0,11.1-5,11.1-11.1C31.1,13.9,26.1,8.9,20,8.9z
		 M20,9.9c2.6,0,5.2,1,7,2.9c0.1,0.1,0.2,0.3,0.2,0.4c0,0.2-0.1,0.3-0.2,0.4c-0.1,0.1-0.3,0.2-0.4,0.2s-0.3-0.1-0.4-0.2
		c-1.7-1.6-3.8-2.5-6.2-2.5c-0.4,0-0.6-0.3-0.6-0.6C19.4,10.2,19.6,9.9,20,9.9z M19.5,14.8v-1.6h1.2v1.5c1.2,0.1,1.9,0.7,2.4,1.2
		l0.1,0.1l-0.9,0.9l-0.1-0.1c-0.6-0.6-1.2-0.9-2.1-0.9c-1,0-1.7,0.6-1.7,1.4c0,1,1,1.4,2.1,1.9c1.3,0.6,2.9,1.2,2.9,3.2
		c0,1.5-1,2.5-2.7,2.8v1.6h-1.2v0v-1.5c-1-0.1-2.2-0.6-2.9-1.2l-0.1-0.1l0.8-1l0.1,0.1c0.9,0.7,1.8,1,2.6,1c1.3,0,1.9-0.5,1.9-1.6
		c0-1.2-1.1-1.7-2.3-2.2c-1.3-0.6-2.7-1.2-2.7-2.9C17,16.1,18,15,19.5,14.8z M16.9,28.9c-0.1,0.2-0.4,0.4-0.6,0.4
		c-0.1,0-0.2,0-0.3,0c-3.7-1.6-6.2-5.2-6.2-9.3c0-3.9,2.3-7.5,5.9-9.2c0.1,0,0.2,0,0.3,0c0.3,0,0.5,0.1,0.6,0.4
		c0.1,0.3,0,0.7-0.3,0.9c-3.1,1.4-5.1,4.6-5.1,8c0,3.5,2.1,6.7,5.4,8.1c0.2,0.1,0.3,0.2,0.4,0.4C17,28.6,17,28.8,16.9,28.9z
		 M27.9,15.7c0-0.2,0.2-0.3,0.3-0.4c0.1,0,0.2-0.1,0.3-0.1c0.3,0,0.5,0.1,0.6,0.4c0.7,1.4,1,2.9,1,4.4c0,5.6-4.5,10.1-10.1,10.1
		c-0.4,0-0.6-0.3-0.6-0.6c0-0.4,0.3-0.6,0.6-0.6c4.8,0,8.8-4,8.8-8.8c0-1.3-0.3-2.6-0.9-3.9C27.8,16,27.8,15.8,27.9,15.7z"/>
	<path class="st0" d="M20,0C9,0,0,9,0,20s9,20,20,20c11,0,20-9,20-20S31,0,20,0z M20,32.3c-6.8,0-12.3-5.5-12.3-12.3
		S13.2,7.7,20,7.7c6.8,0,12.3,5.5,12.3,12.3S26.8,32.3,20,32.3z"/>
</g>
</svg>
