<?xml version="1.0" encoding="utf-8"?>
<!-- Generator: Adobe Illustrator 16.0.0, SVG Export Plug-In . SVG Version: 6.00 Build 0)  -->
<!DOCTYPE svg PUBLIC "-//W3C//DTD SVG 1.1//EN" "http://www.w3.org/Graphics/SVG/1.1/DTD/svg11.dtd">
<svg version="1.1" id="图层_1" xmlns="http://www.w3.org/2000/svg" xmlns:xlink="http://www.w3.org/1999/xlink" x="0px" y="0px"
	 width="50px" height="50px" viewBox="0 0 50 50" enable-background="new 0 0 50 50" xml:space="preserve">
<g>
	<path fill="#79852E" d="M22,26c-4,0-9,0-13,0c0,1,0,2,0,4c4,0,9,0,13,0C22,29,22,27,22,26z"/>
	<path fill="#79852E" d="M4,42.706C4,29.799,4,16.794,4,3.888c3-0.194,35,0,37,0.194C41,8.934,41,14,41,19c1,0,2,0,3,0
		c0,0,0-0.75,0-0.943c0-4.562,0-9.123,0-13.684c0-0.388,0.125-0.973,0.027-1.361C43.83,1.361,42.389,0,40.725,0
		c-12.433,0-24.768,0-37.2,0C1.958,0,0,1.752,0,3.693c0,13.199,0,26.3,0,39.401C0,45.035,1.762,47,3.622,47c4.699,0,9.3,0,13.999,0
		c0.195,0,0.392,0,0.588,0c0-1,0.14-2.681,0.042-3.941C13.454,42.961,8,42.803,4,42.706z"/>
	<path fill="#79852E" d="M9,38c4,0,9,0,13,0c0-1,0-2,0-3c-4,0-9,0-13,0C9,36,9,37,9,38z"/>
	<path fill="#79852E" d="M34,9C25,9,17,9,9,9c0,1,0,2,0,3c8,0,16,0,25,0C34,11,34,10,34,9z"/>
	<path fill="#79852E" d="M29,18c-7,0-14,0-20,0c0,1,0,2,0,3c6,0,13,0,20,0C29,20,29,19,29,18z"/>
	<path fill="#79852E" d="M49.633,44.355c-0.881-1.553-1.664-3.202-2.545-4.755c-0.881-1.456-1.664-3.008-2.447-4.464
		c-0.098-0.194-0.294-0.485-0.195-0.68c0.686-1.553,0.881-3.105,0.783-4.658c0-1.455-0.49-2.814-1.176-4.076
		c-0.881-1.553-2.153-2.814-3.72-3.785c-2.251-1.358-4.698-1.747-7.244-1.262c-2.447,0.485-4.503,1.748-6.069,3.785
		c-1.371,1.747-2.056,3.785-2.154,6.017c-0.098,1.261,0.099,2.62,0.686,3.785c0.098,0.193,0.196,0.388,0.098,0.582
		c-0.587,1.067-1.175,2.135-1.762,3.202c-1.272,2.136-2.447,4.271-3.622,6.404c-0.099,0.195-0.099,0.583,0,0.875
		c0.195,0.484,0.783,0.678,1.468,0.581c1.371-0.291,2.741-0.68,4.21-0.97c0,0.193,0.098,0.193,0.098,0.29
		c0.489,1.359,0.882,2.718,1.469,4.077c0.098,0.291,0.587,0.582,0.881,0.68c0.392,0,0.784-0.195,0.979-0.583
		c0.979-1.746,1.958-3.494,2.937-5.24c0.489-0.971,0.979-2.038,1.566-3.009c0.196-0.291,0.392-0.485,0.783-0.291
		c0.294,0.098,0.588,0,0.881,0c0.196,0,0.489,0.098,0.588,0.194c0.979,1.746,1.958,3.591,2.937,5.337
		c0.49,0.971,1.077,1.844,1.566,2.815c0.195,0.484,0.588,0.873,1.175,0.776c0.686,0,0.783-0.486,0.979-0.972
		c0.489-1.164,0.979-2.426,1.37-3.59c0.098-0.292,0.195-0.389,0.489-0.292c1.272,0.292,2.545,0.583,3.916,0.873
		c0.489,0.099,0.979,0.099,1.272-0.29C50.123,45.327,50.025,44.938,49.633,44.355z M30.543,39.892
		c-0.685,1.165-1.271,2.315-1.957,3.577C27.9,41.043,27.9,42,26.139,42c0,0-0.099,0-0.196,0c0.783-1,1.566-2.801,2.252-4.063
		c0.685,0.484,1.37,0.928,2.153,1.413C30.543,39.448,30.642,39.504,30.543,39.892z M35.145,36.883
		c-3.622,0.098-6.461-2.911-6.363-6.308c0.098-3.784,2.84-6.308,6.462-6.308c3.426,0,6.362,2.717,6.265,6.696
		C41.41,34.166,38.767,36.98,35.145,36.883z M43.368,42.221c-0.489-0.097-0.783,0.098-0.979,0.485
		c-0.195,0.485-0.392,1.067-0.587,1.649c-0.881-1.553-1.664-3.008-2.447-4.464c0.979-0.68,1.958-1.359,3.034-2.037
		c0.882,1.553,1.763,3.105,2.644,4.755C44.445,42.415,43.857,42.415,43.368,42.221z"/>
</g>
</svg>
