<?xml version="1.0" encoding="utf-8"?>
<!-- Generator: Adobe Illustrator 16.0.0, SVG Export Plug-In . SVG Version: 6.00 Build 0)  -->
<!DOCTYPE svg PUBLIC "-//W3C//DTD SVG 1.1//EN" "http://www.w3.org/Graphics/SVG/1.1/DTD/svg11.dtd">
<svg version="1.1" id="图层_1" xmlns="http://www.w3.org/2000/svg" xmlns:xlink="http://www.w3.org/1999/xlink" x="0px" y="0px"
	 width="50px" height="50px" viewBox="0 0 50 50" enable-background="new 0 0 50 50" xml:space="preserve">
<g id="XMLID_3677_">
	<path id="XMLID_3678_" fill-rule="evenodd" clip-rule="evenodd" fill="#79852E" d="M15.017,49.814
		c-1.312-0.498-2.562-0.996-3.873-1.556c-1.812-0.684-2.499-2.425-1.812-4.29c0.25-0.685,0.437-1.369,0.749-2.053
		c0.188-0.435,0.125-0.746-0.249-1.057c-1.749-1.492-3.249-3.233-4.311-5.286c-1-1.866-1.562-3.855-1.499-5.97
		c0.063-1.679,0.187-3.42,0.25-5.038c-0.813-0.498-1.688-1.057-2.438-1.679c-2.498-2.115-2.436-6.53,0.125-8.458
		c0.313-0.249,0.625-0.435,1-0.56c0.5-0.187,1,0.125,1.249,0.56c0.188,0.498,0.125,0.996-0.312,1.368
		c-0.063,0.063-0.188,0.187-0.25,0.187c-1.688,0.746-2.062,3.793-0.25,5.286c0.5,0.435,1.062,0.746,1.624,1.119
		c0.188-0.373,0.313-0.622,0.375-0.933c1.499-3.607,4.123-5.97,7.309-7.773c4.436-2.487,9.184-3.172,14.118-2.674
		c1,0.124,1.937,0.311,2.937,0.435c0.125,0,0.374-0.062,0.437-0.248c1.688-3.11,4.311-4.976,7.56-5.909
		c0.499-0.124,0.999-0.124,1.312,0.311c0.313,0.374,0.25,0.871,0.125,1.369c-0.438,1.492-0.938,3.047-1.312,4.602
		c-0.188,0.622-0.188,1.244-0.25,1.866c-0.063,0.374,0.063,0.56,0.375,0.685c2.312,1.057,4.123,2.736,5.435,5.037
		c0.625,1.119,1.125,2.363,1.374,3.669c0.188,0.808,0.188,0.808,0.938,0.808h1.249c1.563,0.063,2.624,0.995,2.937,2.674
		c0,0.063,0.063,0.187,0.063,0.249v5.659c0,0.125-0.063,0.187-0.063,0.311c-0.25,1.555-1.188,2.488-2.687,2.612
		c-0.375,0.062-0.75,0.062-1.124,0c-0.875-0.125-1.375,0.249-1.812,1.119c-1.188,2.55-2.999,4.54-5.373,6.032
		c-0.188,0.125-0.313,0.249-0.5,0.374c0.188,0.498,0.313,0.933,0.5,1.431c0.75,2.052,0.063,3.669-1.937,4.415
		c-1.187,0.498-2.437,0.996-3.623,1.492h-1.187c-1.438-0.435-2.125-1.555-2.499-2.984c-0.063-0.249-0.188-0.498-0.25-0.747
		c-0.063-0.435-0.313-0.621-0.813-0.559c-2.998,0.31-6.06,0.497-9.058-0.249c-0.125-0.063-0.375,0.125-0.438,0.311
		c-0.188,0.435-0.375,0.932-0.563,1.43c-0.375,1.368-1.124,2.363-2.498,2.798h-1.063V49.814 M36.507,8.084
		c-0.438,0.249-0.688,0.373-1,0.56c-1.687,1.058-2.874,2.55-3.748,4.416c-0.375,0.746-0.75,0.933-1.563,0.808
		c-1.374-0.249-2.686-0.498-4.061-0.622c-4.997-0.436-9.683,0.497-13.93,3.42c-1.375,0.933-2.624,1.99-3.562,3.421
		c-1.562,2.363-2.249,5.037-2.437,7.898c-0.125,2.549,0.313,4.975,1.625,7.151c0.999,1.617,2.248,2.922,3.623,4.104
		c1.062,0.933,1.312,1.866,0.813,3.233c-0.25,0.747-0.563,1.556-0.813,2.301c-0.313,0.809-0.125,1.12,0.563,1.43
		c0.999,0.374,1.998,0.809,2.936,1.182c0.75,0.311,1.125,0.125,1.374-0.622c0.313-0.87,0.625-1.679,1-2.55
		c0.375-0.932,1.124-1.306,2.124-1.181c0.999,0.125,1.999,0.436,2.998,0.436c2,0,3.998-0.062,5.998-0.187
		c1.623-0.125,2.373,0.249,2.936,1.928c0.188,0.56,0.375,1.181,0.625,1.804c0.188,0.498,0.562,0.684,1.062,0.498
		c1.187-0.436,2.312-0.871,3.437-1.369c0.437-0.186,0.624-0.559,0.437-1.057c-0.125-0.436-0.25-0.871-0.437-1.243
		c-0.563-1.68-0.25-2.612,1.187-3.546c0.562-0.372,1.187-0.746,1.687-1.181c1.437-1.243,2.499-2.799,3.311-4.54
		c0.563-1.181,1.438-1.741,2.749-1.741c0.5,0,0.999,0,1.499,0c0.625,0,0.875-0.249,0.875-0.932c0-1.68,0-3.421,0-5.1
		c0-0.746-0.25-0.933-0.938-0.933c-0.624,0-1.249,0-1.874-0.062c-1.187-0.062-1.937-0.746-2.187-2.052
		c-0.749-3.855-2.873-6.467-6.371-7.898c-0.75-0.311-1-0.622-1-1.555c0-1.555,0.188-3.109,0.625-4.602
		C36.194,9.142,36.319,8.707,36.507,8.084L36.507,8.084 M18.515,0.062c1,0.311,2.124,0.498,3.062,0.995
		c2.624,1.368,4.061,3.669,4.435,6.716c0.063,0.249,0,0.498,0,0.809c-0.687,0-1.374,0.062-2.061,0.125
		c-0.125-2.55-1.188-4.54-3.437-5.722c-1.499-0.809-2.998-0.809-4.56-0.249c-2.999,1.119-4.998,4.789-3.374,8.644
		c-0.624,0.311-1.249,0.56-1.937,0.871c-0.563-1.181-0.812-2.363-0.812-3.669c0-4.354,3.061-7.898,7.121-8.458
		c0.125,0,0.25-0.063,0.438-0.125C17.766,0.062,18.14,0.062,18.515,0.062L18.515,0.062 M35.382,25.684
		c0-1.182,0.938-2.176,2.062-2.176s2.062,0.995,2.062,2.176s-0.938,2.177-2.062,2.177C36.319,27.924,35.382,26.866,35.382,25.684
		L35.382,25.684 M35.382,25.684"/>
</g>
</svg>
