<?xml version="1.0" encoding="utf-8"?>
<!-- Generator: Adobe Illustrator 16.0.0, SVG Export Plug-In . SVG Version: 6.00 Build 0)  -->
<!DOCTYPE svg PUBLIC "-//W3C//DTD SVG 1.1//EN" "http://www.w3.org/Graphics/SVG/1.1/DTD/svg11.dtd">
<svg version="1.1" id="图层_1" xmlns="http://www.w3.org/2000/svg" xmlns:xlink="http://www.w3.org/1999/xlink" x="0px" y="0px"
	 width="50px" height="50px" viewBox="0 0 50 50" enable-background="new 0 0 50 50" xml:space="preserve">
<path fill="#79852E" d="M16.859,2.793H3.372C1.51,2.793,0,4.303,0,6.165v13.487c0,1.863,1.51,3.373,3.372,3.373h13.487
	c1.862,0,3.372-1.51,3.372-3.373V6.165C20.231,4.303,18.722,2.793,16.859,2.793L16.859,2.793z M16.859,19.652H3.372V6.165h13.487
	V19.652z M16.859,29.769H3.372C1.51,29.769,0,31.278,0,33.141v13.487C0,48.49,1.51,50,3.372,50h13.487
	c1.862,0,3.372-1.51,3.372-3.372V33.141C20.231,31.278,18.722,29.769,16.859,29.769L16.859,29.769z M16.859,46.628H3.372V33.141
	h13.487V46.628z M43.834,29.769H30.347c-1.862,0-3.372,1.51-3.372,3.372v13.487c0,1.862,1.51,3.372,3.372,3.372h13.487
	c1.862,0,3.372-1.51,3.372-3.372V33.141C47.207,31.278,45.697,29.769,43.834,29.769L43.834,29.769z M43.834,46.628H30.347V33.141
	h13.487V46.628z M49.012,10.525l-9.537-9.537c-1.317-1.318-3.452-1.318-4.769,0l-9.537,9.537c-1.317,1.316-1.317,3.451,0,4.768
	l9.537,9.537c1.317,1.317,3.452,1.317,4.769,0l9.537-9.537C50.329,13.977,50.329,11.842,49.012,10.525z M37.091,22.445l-9.537-9.537
	l9.537-9.537l9.537,9.537L37.091,22.445L37.091,22.445z"/>
</svg>
