<?xml version="1.0" encoding="utf-8"?>
<!-- Generator: Adobe Illustrator 21.0.0, SVG Export Plug-In . SVG Version: 6.00 Build 0)  -->
<svg version="1.1" id="图层_1" xmlns="http://www.w3.org/2000/svg" xmlns:xlink="http://www.w3.org/1999/xlink" x="0px" y="0px"
	 viewBox="0 0 40 40" style="enable-background:new 0 0 40 40;" xml:space="preserve">
<style type="text/css">
	.st0{fill:#FF9F2C;}
	.st1{fill:#F75965;}
	.st2{fill:#FFFFFF;}
	.st3{fill:#3BB7E2;}
</style>
<path class="st0" d="M20,0C9,0,0,9,0,20c0,11,9,20,20,20s20-9,20-20C40,9,31,0,20,0z M11.7,13.5c-0.4,0.4-0.6,0.9-0.6,1.5l0.1,7.2
	c0.1,0.3-0.2,0.6-0.5,0.6c-0.3,0-0.5-0.2-0.5-0.5L10,15.1c0-0.8,0.3-1.6,0.9-2.3c0.6-0.6,1.4-0.9,2.3-0.9h8.1l-0.9-0.7
	c-0.2-0.2-0.3-0.5-0.1-0.7c0.2-0.2,0.5-0.3,0.7-0.1l2.1,1.7c0.2,0.2,0.3,0.4,0.2,0.6c-0.1,0.2-0.2,0.4-0.4,0.4h-9.6
	C12.6,12.9,12.1,13.2,11.7,13.5z M15.9,22.5c0-0.3,0.2-0.5,0.5-0.5h3.1v-2.1h-3.1c-0.3,0-0.5-0.2-0.5-0.5s0.2-0.5,0.5-0.5h2.4
	l-2.2-2.1c-0.2-0.2-0.3-0.5-0.1-0.7c0.2-0.2,0.5-0.2,0.7,0l2.6,2.5l2.8-2.7c0.2-0.2,0.5-0.2,0.7,0c0.2,0.2,0.2,0.5,0,0.7l-2.4,2.3
	h2.5c0.3,0,0.5,0.2,0.5,0.5s-0.2,0.5-0.5,0.5h-3.1V22h3c0.3,0,0.5,0.2,0.5,0.5S24,23,23.7,23h-3.1v2.6c0,0.3-0.2,0.5-0.5,0.5
	c-0.3,0-0.5-0.2-0.5-0.5V23h-3.1C16.1,23,15.9,22.8,15.9,22.5z M28.5,28.8c-0.6,0.6-1.4,0.9-2.2,0.9h-8.1l0.9,0.7
	c0.2,0.2,0.3,0.5,0.1,0.7c-0.1,0.1-0.3,0.1-0.4,0.1c-0.1,0-0.2-0.1-0.3-0.1l-2.1-1.7c-0.2-0.2-0.3-0.4-0.2-0.6
	c0.1-0.2,0.3-0.4,0.5-0.4h9.6c0.6,0,1.1-0.2,1.5-0.6c0.4-0.4,0.6-0.9,0.6-1.4l-0.1-7.2c0-0.3,0.2-0.5,0.5-0.5c0.3,0,0.5,0.2,0.5,0.5
	l0.1,7.2C29.4,27.4,29,28.2,28.5,28.8z"/>
</svg>
