<?xml version="1.0" encoding="utf-8"?>
<!-- Generator: Adobe Illustrator 16.0.0, SVG Export Plug-In . SVG Version: 6.00 Build 0)  -->
<!DOCTYPE svg PUBLIC "-//W3C//DTD SVG 1.1//EN" "http://www.w3.org/Graphics/SVG/1.1/DTD/svg11.dtd">
<svg version="1.1" id="图层_1" xmlns="http://www.w3.org/2000/svg" xmlns:xlink="http://www.w3.org/1999/xlink" x="0px" y="0px"
	 width="50px" height="50px" viewBox="0 0 50 50" enable-background="new 0 0 50 50" xml:space="preserve">
<g>
	<path fill="#79852E" d="M36,17.152l-0.564-1.308c-6.695,4.143-11.552,9.35-13.734,11.974l-5.339-4.224L14,25.511l9.222,9.464
		C24.824,30.881,29.852,22.855,36,17.152z"/>
	<path fill="#79852E" d="M50,6.956V0H0v7.413v2.589V50l7.311-4.788l5.896,3.861l5.896-3.861L25,49.073l5.896-3.861l5.896,3.861
		l5.896-3.861L50,50V6.956L50,6.956z M3,3h44v4H3V3z M47,44.778l-4.396-2.936l-5.854,3.861l-5.875-3.861l-5.886,3.861l-5.891-3.861
		l-5.895,3.861l-5.81-3.861L3,44.778V10h44V44.778z"/>
</g>
</svg>
