<?xml version="1.0" encoding="utf-8"?>
<!-- Generator: Adobe Illustrator 16.0.0, SVG Export Plug-In . SVG Version: 6.00 Build 0)  -->
<!DOCTYPE svg PUBLIC "-//W3C//DTD SVG 1.1//EN" "http://www.w3.org/Graphics/SVG/1.1/DTD/svg11.dtd">
<svg version="1.1" id="图层_1" xmlns="http://www.w3.org/2000/svg" xmlns:xlink="http://www.w3.org/1999/xlink" x="0px" y="0px"
	 width="50px" height="50px" viewBox="0 0 50 50" enable-background="new 0 0 50 50" xml:space="preserve">
<g id="XMLID_3663_">
	<g id="XMLID_3686_">
		<rect id="XMLID_3712_" x="45.454" y="42.878" fill="#79852E" width="4.546" height="5.001"/>
		<rect id="XMLID_3709_" x="27.271" y="42.878" fill="#79852E" width="4.546" height="5.001"/>
		<path id="XMLID_3687_" fill="#79852E" d="M50,7.879v-5H27.271v5h9.092v4.998h-4.546h-4.546v25h4.546v5h4.546v-5h4.546v5h4.546v-5
			H50v-20v-5h-9.092V7.879H50z M45.454,17.878v20h-4.546v-15h-4.546v15h-4.546v-20H45.454z"/>
	</g>
	<polygon id="XMLID_3681_" fill-rule="evenodd" clip-rule="evenodd" fill="#79852E" points="22.725,22.878 22.725,27.879 
		18.179,27.879 18.179,22.878 13.633,22.878 13.633,47.879 9.087,47.879 9.087,42.878 4.541,42.878 4.541,37.878 9.087,37.878 
		9.087,22.878 0,22.878 0,17.878 9.087,17.878 9.087,12.877 13.633,12.877 13.633,7.879 4.541,7.879 4.541,2.879 18.179,2.879 
		18.179,7.879 18.179,12.877 13.633,12.877 13.633,17.878 22.725,17.878 22.725,22.878 22.725,22.878 	"/>
</g>
</svg>
